<svg width="231" height="205" viewBox="0 0 231 205" fill="none" xmlns="http://www.w3.org/2000/svg">
<path d="M0 175.972H68.3467V107.625H0V175.972ZM17.0967 124.722H51.25V158.875H17.0967V124.722ZM85.4033 167.443H205V150.347H85.4033V167.443ZM0 90.5684H68.3467V22.2217H0V90.5684ZM17.0967 39.3184H51.25V73.4717H17.0967V39.3184ZM85.4033 30.75V47.8467H205V30.75H85.4033ZM85.4033 133.25H205V116.153H85.4033V133.25ZM85.4033 82H205V64.9033H85.4033V82Z" fill="#A5B987"/>
<path d="M119.09 136.756L142.991 134.289L221.132 41.765L194.637 21.4679L116.5 113.991L119.09 136.756Z" fill="#A5B987" stroke="white" stroke-width="2" stroke-linejoin="round"/>
</svg>
