<svg width="188" height="167" viewBox="0 0 188 167" fill="none" xmlns="http://www.w3.org/2000/svg">
<path d="M173.062 0.9375H14.9375C11.125 0.9375 7.46867 2.452 4.77284 5.14784C2.077 7.84368 0.5625 11.5 0.5625 15.3125V159.063C0.563154 160.288 0.876904 161.492 1.47396 162.562C2.07102 163.631 2.93157 164.531 3.97392 165.174C5.01626 165.818 6.20581 166.184 7.42962 166.239C8.65343 166.294 9.87089 166.035 10.9664 165.486L36.5 152.72L62.0336 165.486C63.0322 165.986 64.1334 166.246 65.25 166.246C66.3666 166.246 67.4678 165.986 68.4664 165.486L94 152.72L119.534 165.486C120.532 165.986 121.633 166.246 122.75 166.246C123.867 166.246 124.968 165.986 125.966 165.486L151.5 152.72L177.034 165.486C178.129 166.035 179.347 166.294 180.57 166.239C181.794 166.184 182.984 165.818 184.026 165.174C185.068 164.531 185.929 163.631 186.526 162.562C187.123 161.492 187.437 160.288 187.438 159.063V15.3125C187.438 11.5 185.923 7.84368 183.227 5.14784C180.531 2.452 176.875 0.9375 173.062 0.9375ZM173.062 147.437L154.716 138.255C153.718 137.755 152.617 137.495 151.5 137.495C150.383 137.495 149.282 137.755 148.284 138.255L122.75 151.03L97.2164 138.255C96.2178 137.755 95.1166 137.495 94 137.495C92.8834 137.495 91.7822 137.755 90.7836 138.255L65.25 151.03L39.7164 138.255C38.7178 137.755 37.6166 137.495 36.5 137.495C35.3834 137.495 34.2822 137.755 33.2836 138.255L14.9375 147.437V15.3125H173.062V147.437ZM101.188 65.625C101.188 63.7188 101.945 61.8906 103.293 60.5427C104.641 59.1948 106.469 58.4375 108.375 58.4375H151.5C153.406 58.4375 155.234 59.1948 156.582 60.5427C157.93 61.8906 158.688 63.7188 158.688 65.625C158.688 67.5312 157.93 69.3594 156.582 70.7073C155.234 72.0553 153.406 72.8125 151.5 72.8125H108.375C106.469 72.8125 104.641 72.0553 103.293 70.7073C101.945 69.3594 101.188 67.5312 101.188 65.625ZM101.188 94.375C101.188 92.4688 101.945 90.6406 103.293 89.2927C104.641 87.9448 106.469 87.1875 108.375 87.1875H151.5C153.406 87.1875 155.234 87.9448 156.582 89.2927C157.93 90.6406 158.688 92.4688 158.688 94.375C158.688 96.2812 157.93 98.1094 156.582 99.4573C155.234 100.805 153.406 101.563 151.5 101.563H108.375C106.469 101.563 104.641 100.805 103.293 99.4573C101.945 98.1094 101.188 96.2812 101.188 94.375ZM36.5 115.938H79.625C81.5312 115.938 83.3594 115.18 84.7073 113.832C86.0552 112.484 86.8125 110.656 86.8125 108.75V51.25C86.8125 49.3438 86.0552 47.5156 84.7073 46.1677C83.3594 44.8198 81.5312 44.0625 79.625 44.0625H36.5C34.5938 44.0625 32.7656 44.8198 31.4177 46.1677C30.0698 47.5156 29.3125 49.3438 29.3125 51.25V108.75C29.3125 110.656 30.0698 112.484 31.4177 113.832C32.7656 115.18 34.5938 115.938 36.5 115.938ZM43.6875 58.4375H72.4375V101.563H43.6875V58.4375Z" fill="#A5B987"/>
</svg>
